# xmcd
#
# Track frame offsets: 
#        182
#        26942
#        55102
#        80717
#        106957
#        132240
#        218590
#
# Disc length: 3397 seconds
#
# Revision: 4
# Processed by: cddbd v1.5.2PL0 Copyright (c) Steve Scherf et al.
# Submitted via: ExactAudioCopy v0.95b4
#
DISCID=5d0d4307
DTITLE=Jack Bruce and Friends - Live At Bottom Line
DYEAR=1980
DGENRE=Rock
TTITLE0=White Room
TTITLE1=Jet Set
TTITLE2=Born Under A Bad Sign
TTITLE3=The Loner
TTITLE4=Theme From An Imaginary Western
TTITLE5=Bird Alone
TTITLE6=Sunshine Of Your Love
EXTD=live at bottom line, n.y.c. march 19th, 1980.\n\nJack Bruce, Davi
EXTD=d Sancious, Clemp Clenpson, Billy Cobham YEAR: 1980 ID3G: 17
EXTT0=
EXTT1=
EXTT2=
EXTT3=
EXTT4=
EXTT5=
EXTT6=
PLAYORDER=
